<svg viewBox="0 0 165 40" fill="none" xmlns="http://www.w3.org/2000/svg">
<rect width="164.857" height="40" fill="white"/>
<path fill-rule="evenodd" clip-rule="evenodd" d="M31.1821 29.2281C30.9375 29.8494 30.3731 30.7242 29.5727 31.3404C29.1106 31.6963 28.5589 32.0365 27.8011 32.261C26.9933 32.5004 25.9983 32.5813 24.7599 32.5813H13.4366C12.1983 32.5813 11.2033 32.5004 10.3954 32.261C9.63759 32.0365 9.08599 31.6963 8.62379 31.3404C7.82349 30.7241 7.25899 29.8494 7.01439 29.2281C6.52169 27.9763 6.51669 26.556 6.51669 25.6615V14.3381C6.51669 13.4436 6.52169 12.0233 7.01439 10.7715C7.25899 10.1502 7.82339 9.27537 8.62379 8.65917C9.08589 8.30327 9.63759 7.96307 10.3954 7.73857C11.2032 7.49917 12.1982 7.41827 13.4366 7.41827H24.76C25.9983 7.41827 26.9933 7.49917 27.8012 7.73857C28.559 7.96307 29.1106 8.30337 29.5728 8.65917C30.3731 9.27547 30.9376 10.1502 31.1822 10.7715C31.6749 12.0233 31.6799 13.4436 31.6799 14.3381V25.6615C31.6798 26.5559 31.6748 27.9762 31.1821 29.2281Z" fill="url(#paint0_linear_41_59)"/>
<path d="M20.9232 21.8815C20.5456 21.4831 19.8824 21.2277 19.0995 21.2277C18.3165 21.2277 17.6533 21.4831 17.2757 21.8815C17.0787 22.0894 16.9745 22.3025 16.9417 22.6061C16.8781 23.194 16.9138 23.7002 16.9827 24.5095C17.0483 25.2807 17.1729 26.3091 17.3355 27.3565C17.4512 28.1019 17.5452 28.5042 17.6308 28.7923C17.7696 29.2592 18.2883 29.6675 19.0995 29.6675C19.9106 29.6675 20.4293 29.2591 20.5681 28.7923C20.6537 28.5042 20.7477 28.1019 20.8634 27.3565C21.026 26.3091 21.1506 25.2807 21.2162 24.5095C21.2851 23.7001 21.3208 23.1939 21.2572 22.6061C21.2244 22.3026 21.1202 22.0894 20.9232 21.8815ZM17.0421 18.3342C17.0421 19.4715 17.9641 20.3935 19.1014 20.3935C20.2388 20.3935 21.1608 19.4715 21.1608 18.3342C21.1608 17.1968 20.2388 16.2748 19.1014 16.2748C17.9641 16.2748 17.0421 17.1968 17.0421 18.3342ZM19.0759 10.2072C14.2596 10.2209 10.3131 14.1282 10.2535 18.9442C10.2051 22.8455 12.6955 26.1827 16.173 27.4059C16.2574 27.4356 16.3431 27.3655 16.3298 27.277C16.2842 26.9741 16.2412 26.6697 16.2017 26.3704C16.1877 26.2646 16.1203 26.1734 16.0226 26.1307C13.274 24.9299 11.3547 22.1733 11.3855 18.9802C11.4259 14.7898 14.8477 11.3736 19.0381 11.3397C23.322 11.3051 26.8181 14.7799 26.8181 19.0559C26.8181 22.217 24.9072 24.9398 22.18 26.131C22.0823 26.1737 22.0153 26.2652 22.0014 26.3709C21.9619 26.6701 21.9189 26.9744 21.8734 27.277C21.86 27.3655 21.9457 27.4356 22.0301 27.406C25.4744 26.1945 27.9503 22.9092 27.9503 19.056C27.9501 14.1681 23.9668 10.1932 19.0759 10.2072ZM18.916 14.2667C21.6463 14.161 23.9011 16.3514 23.9011 19.0586C23.9011 20.4354 23.3178 21.6784 22.3855 22.5538C22.3064 22.628 22.2639 22.7334 22.27 22.8417C22.2886 23.171 22.2818 23.491 22.2599 23.8524C22.254 23.9487 22.362 24.0102 22.4417 23.9559C24.0051 22.8875 25.0334 21.091 25.0334 19.0586C25.0334 15.7122 22.246 13.0045 18.8711 13.1353C15.7347 13.2569 13.2184 15.8428 13.1782 18.9814C13.1518 21.0456 14.1864 22.8743 15.7699 23.9561C15.8494 24.0104 15.9571 23.9488 15.9512 23.8526C15.9292 23.491 15.9225 23.171 15.941 22.8417C15.9471 22.7335 15.9047 22.6281 15.8258 22.554C14.8644 21.6514 14.274 20.3579 14.3116 18.9299C14.3778 16.4169 16.4039 14.364 18.916 14.2667Z" fill="white"/>
<path d="M44.223 26.8223H39.4896L38.3529 30.1787H36.348L40.8314 17.7598H42.9144L47.3978 30.1787H45.3587L44.223 26.8223ZM39.9798 25.2734H43.7318L41.8822 19.8252H41.8304L39.9798 25.2734Z" fill="black"/>
<path d="M57.0804 25.6523C57.0804 28.4658 55.5745 30.2734 53.3021 30.2734C52.0121 30.2734 50.9876 29.6963 50.4535 28.6894H50.4105V33.1738H48.5521V21.125H50.3509V22.6309H50.3851C50.9017 21.6592 52.0033 21.0303 53.2679 21.0303C55.5657 21.0303 57.0804 22.8467 57.0804 25.6523ZM55.1702 25.6523C55.1702 23.8193 54.2229 22.6142 52.7776 22.6142C51.3577 22.6142 50.4026 23.8447 50.4026 25.6523C50.4026 27.4765 51.3577 28.6982 52.7776 28.6982C54.223 28.6982 55.1702 27.502 55.1702 25.6523Z" fill="black"/>
<path d="M67.0452 25.6523C67.0452 28.4658 65.5393 30.2734 63.2669 30.2734C61.9769 30.2734 60.9525 29.6963 60.4183 28.6894H60.3753V33.1738H58.5169V21.125H60.3157V22.6309H60.3499C60.8665 21.6592 61.9681 21.0303 63.2327 21.0303C65.5306 21.0303 67.0452 22.8467 67.0452 25.6523ZM65.1351 25.6523C65.1351 23.8193 64.1878 22.6142 62.7425 22.6142C61.3226 22.6142 60.3675 23.8447 60.3675 25.6523C60.3675 27.4765 61.3226 28.6982 62.7425 28.6982C64.1878 28.6982 65.1351 27.502 65.1351 25.6523Z" fill="black"/>
<path d="M68.5501 17.7598H70.4095V30.1787H68.5501V17.7598Z" fill="black"/>
<path d="M80.0853 27.5195C79.8353 29.1631 78.2347 30.291 76.1869 30.291C73.5531 30.291 71.9183 28.5264 71.9183 25.6953C71.9183 22.8555 73.5619 21.0137 76.1087 21.0137C78.6136 21.0137 80.1888 22.7344 80.1888 25.4795V26.1162H73.7943V26.2285C73.7943 27.7773 74.767 28.793 76.2298 28.793C77.262 28.793 78.0716 28.3028 78.3206 27.5196L80.0853 27.5195ZM73.803 24.8174H78.3294C78.2864 23.4317 77.3997 22.5195 76.1087 22.5195C74.8265 22.5195 73.8978 23.4492 73.803 24.8174Z" fill="black"/>
<path d="M90.0872 17.7598C92.4964 17.7598 94.1751 19.4209 94.1751 21.8399C94.1751 24.2667 92.4622 25.9356 90.0267 25.9356H87.3587V30.1788H85.431V17.7598H90.0872ZM87.3587 24.3184H89.5706C91.2483 24.3184 92.2034 23.4141 92.2034 21.8487C92.2034 20.2823 91.2483 19.3863 89.5794 19.3863H87.3587V24.3184Z" fill="black"/>
<path d="M94.8538 25.6523C94.8538 22.8037 96.5315 21.0136 99.1477 21.0136C101.773 21.0136 103.443 22.8036 103.443 25.6523C103.443 28.5087 101.781 30.291 99.1477 30.291C96.5149 30.291 94.8538 28.5088 94.8538 25.6523ZM101.549 25.6523C101.549 23.6982 100.654 22.5449 99.1477 22.5449C97.6418 22.5449 96.7463 23.707 96.7463 25.6523C96.7463 27.6142 97.6418 28.7587 99.1477 28.7587C100.654 28.7587 101.549 27.6143 101.549 25.6523Z" fill="black"/>
<path d="M104.747 25.6523C104.747 22.8554 106.287 21.0302 108.533 21.0302C109.833 21.0302 110.858 21.6327 111.373 22.6308H111.408V17.7597H113.276V30.1786H111.468V28.6386H111.434C110.901 29.6708 109.867 30.2734 108.551 30.2734C106.287 30.2734 104.747 28.4492 104.747 25.6523ZM106.649 25.6523C106.649 27.5107 107.596 28.6982 109.041 28.6982C110.47 28.6982 111.425 27.4931 111.425 25.6523C111.425 23.8271 110.47 22.6142 109.041 22.6142C107.596 22.6143 106.649 23.8105 106.649 25.6523Z" fill="black"/>
<path d="M121.184 24.2402C121.021 23.2851 120.272 22.5713 119.05 22.5713C117.621 22.5713 116.674 23.7676 116.674 25.6524C116.674 27.5801 117.63 28.7413 119.067 28.7413C120.22 28.7413 120.978 28.1651 121.184 27.1153H122.974C122.768 29.0167 121.244 30.2911 119.05 30.2911C116.468 30.2911 114.781 28.5265 114.781 25.6524C114.781 22.8379 116.468 21.0137 119.032 21.0137C121.356 21.0137 122.802 22.4766 122.957 24.2403L121.184 24.2402Z" fill="black"/>
<path d="M124.113 27.6055C124.113 26.0225 125.326 25.0664 127.477 24.9375L129.955 24.7998V24.1113C129.955 23.1045 129.293 22.5361 128.166 22.5361C127.133 22.5361 126.41 23.0273 126.264 23.8105H124.526C124.578 22.1748 126.1 21.0136 128.217 21.0136C130.377 21.0136 131.806 22.1923 131.806 23.9736V30.1787H130.025V28.6894H129.982C129.456 29.6962 128.312 30.3339 127.124 30.3339C125.352 30.334 124.113 29.2324 124.113 27.6055ZM129.955 26.7881V26.0908L127.727 26.2285C126.617 26.2978 125.989 26.7793 125.989 27.5537C125.989 28.3457 126.643 28.8623 127.641 28.8623C128.941 28.8623 129.955 27.9668 129.955 26.7881Z" fill="black"/>
<path d="M136.993 21.0225C138.999 21.0225 140.436 22.1319 140.479 23.7325H138.732C138.655 22.9327 137.975 22.4425 136.942 22.4425C135.935 22.4425 135.264 22.9064 135.264 23.6124C135.264 24.1544 135.711 24.5157 136.65 24.7481L138.173 25.1016C139.997 25.5401 140.686 26.211 140.686 27.5371C140.686 29.1719 139.137 30.291 136.925 30.291C134.79 30.291 133.354 29.1972 133.216 27.5449H135.057C135.187 28.414 135.883 28.8789 137.011 28.8789C138.121 28.8789 138.819 28.4228 138.819 27.7002C138.819 27.1406 138.474 26.8398 137.528 26.5986L135.909 26.2031C134.274 25.8066 133.448 24.9717 133.448 23.7158C133.448 22.1152 134.885 21.0225 136.993 21.0225Z" fill="black"/>
<path d="M144.724 18.9819V21.125H146.446V22.5967H144.724V27.5879C144.724 28.3633 145.069 28.7246 145.825 28.7246C146.015 28.7246 146.317 28.6982 146.437 28.6816V30.1445C146.231 30.1963 145.818 30.2304 145.405 30.2304C143.572 30.2304 142.857 29.5419 142.857 27.7861V22.5966H141.54V21.125H142.857V18.9819H144.724Z" fill="black"/>
<path d="M151.443 21.0225C153.449 21.0225 154.885 22.1319 154.928 23.7325H153.181C153.104 22.9327 152.424 22.4425 151.391 22.4425C150.384 22.4425 149.713 22.9064 149.713 23.6124C149.713 24.1544 150.161 24.5157 151.099 24.7481L152.622 25.1016C154.447 25.5401 155.135 26.211 155.135 27.5371C155.135 29.1719 153.586 30.291 151.374 30.291C149.24 30.291 147.803 29.1972 147.665 27.5449H149.506C149.636 28.414 150.332 28.8789 151.46 28.8789C152.571 28.8789 153.268 28.4228 153.268 27.7002C153.268 27.1406 152.923 26.8398 151.977 26.5986L150.359 26.2031C148.723 25.8066 147.897 24.9717 147.897 23.7158C147.897 22.1152 149.334 21.0225 151.443 21.0225Z" fill="black"/>
<path d="M41.9578 14.6611H38.2361V8.69427H39.1624V13.809H41.9578V14.6611Z" fill="#A39E9E"/>
<path d="M43.0345 8.82666C43.0345 8.51616 43.2786 8.28076 43.6092 8.28076C43.9403 8.28076 44.1839 8.51616 44.1839 8.82666C44.1839 9.13236 43.9402 9.36816 43.6092 9.36816C43.2786 9.36816 43.0345 9.13226 43.0345 8.82666ZM43.1668 10.1582H44.0516V14.6611H43.1668V10.1582Z" fill="#A39E9E"/>
<path d="M47.1307 10.0713C48.1439 10.0713 48.8055 10.5425 48.8919 11.3364H48.0403C47.9573 11.0058 47.635 10.7949 47.1306 10.7949C46.634 10.7949 46.258 11.0303 46.258 11.3818C46.258 11.6508 46.4855 11.8203 46.9733 11.9321L47.7218 12.1054C48.5778 12.3041 48.9786 12.6723 48.9786 13.3339C48.9786 14.1816 48.189 14.748 47.1139 14.748C46.0426 14.748 45.3439 14.2641 45.2653 13.4663H46.1545C46.2663 13.8135 46.5969 14.0283 47.1345 14.0283C47.6887 14.0283 48.0818 13.7803 48.0818 13.4204C48.0818 13.1518 47.8709 12.978 47.4197 12.8706L46.6341 12.6885C45.7781 12.4859 45.3812 12.1016 45.3812 11.4317C45.3812 10.6333 46.1131 10.0713 47.1307 10.0713Z" fill="#A39E9E"/>
<path d="M51.346 9.03705V10.1786H52.3216V10.9271H51.346V13.2425C51.346 13.7142 51.5403 13.9207 51.9827 13.9207C52.1189 13.9207 52.1975 13.9124 52.3216 13.9002V14.6404C52.1771 14.6648 52.0115 14.6858 51.8377 14.6858C50.8494 14.6858 50.4568 14.3381 50.4568 13.47V10.927H49.7415V10.1785H50.4568V9.03705H51.346Z" fill="#A39E9E"/>
<path d="M57.2532 13.4453C57.0506 14.2519 56.3308 14.748 55.3015 14.748C54.011 14.748 53.2214 13.8632 53.2214 12.4238C53.2214 10.9848 54.0276 10.0713 55.2971 10.0713C56.55 10.0713 57.3069 10.9273 57.3069 12.3413V12.6514H54.1267V12.7012C54.156 13.4908 54.615 13.9912 55.3259 13.9912C55.8635 13.9912 56.2317 13.7969 56.3972 13.4453H57.2532ZM54.1268 11.9941H56.4012C56.3807 11.2871 55.9505 10.8276 55.2933 10.8276C54.6356 10.8276 54.1766 11.291 54.1268 11.9941Z" fill="#A39E9E"/>
<path d="M58.4993 10.1582H59.3553V10.8735H59.4217C59.6405 10.373 60.0872 10.0713 60.7655 10.0713C61.7704 10.0713 62.3246 10.6748 62.3246 11.7461V14.6611H61.4354V11.9692C61.4354 11.2456 61.1209 10.8857 60.4637 10.8857C59.806 10.8857 59.3885 11.3242 59.3885 12.0268V14.6611H58.4993V10.1582Z" fill="#A39E9E"/>
<path d="M65.9183 12.4077C65.9183 10.956 66.7288 10.0713 68.0438 10.0713C69.3543 10.0713 70.1649 10.9561 70.1649 12.4077C70.1649 13.8672 69.3587 14.748 68.0438 14.748C66.7244 14.748 65.9183 13.8672 65.9183 12.4077ZM69.2513 12.4077C69.2513 11.4316 68.8128 10.8608 68.0438 10.8608C67.2704 10.8608 66.8363 11.4316 66.8363 12.4077C66.8363 13.3916 67.2704 13.958 68.0438 13.958C68.8128 13.958 69.2513 13.3877 69.2513 12.4077Z" fill="#A39E9E"/>
<path d="M71.3572 10.1582H72.2132V10.8735H72.2796C72.4988 10.373 72.9451 10.0713 73.6234 10.0713C74.6283 10.0713 75.1825 10.6748 75.1825 11.7461V14.6611H74.2933V11.9692C74.2933 11.2456 73.9788 10.8857 73.3216 10.8857C72.6639 10.8857 72.2464 11.3242 72.2464 12.0268V14.6611H71.3572V10.1582Z" fill="#A39E9E"/>
<defs>
<linearGradient id="paint0_linear_41_59" x1="19.0983" y1="7.41827" x2="19.0983" y2="32.5813" gradientUnits="userSpaceOnUse">
<stop stop-color="#F452FF"/>
<stop offset="1" stop-color="#832BC1"/>
</linearGradient>
</defs>
</svg>
