<svg width="35" height="35" viewBox="0 0 35 35" fill="none" xmlns="http://www.w3.org/2000/svg">
<path d="M35 17.5C35 27.165 27.165 35 17.5 35C7.83502 35 0 27.165 0 17.5C0 7.83502 7.83502 0 17.5 0C27.165 0 35 7.83502 35 17.5Z" fill="url(#paint0_linear_3113_36027)"/>
<path fill-rule="evenodd" clip-rule="evenodd" d="M17.5 31C24.9558 31 31 24.9558 31 17.5C31 10.0442 24.9558 4 17.5 4C10.0442 4 4 10.0442 4 17.5C4 24.9558 10.0442 31 17.5 31ZM16.1875 20.9375V21.2031H19.1484V20.9375C19.1537 20.4271 19.2188 19.9974 19.3438 19.6484C19.474 19.2995 19.6693 18.9922 19.9297 18.7266C20.1953 18.4609 20.5338 18.2057 20.9453 17.9609C21.4349 17.6693 21.8594 17.3438 22.2188 16.9844C22.5781 16.6198 22.8568 16.2031 23.0547 15.7344C23.2578 15.2604 23.3594 14.7188 23.3594 14.1094C23.3594 13.1979 23.1328 12.4193 22.6797 11.7734C22.2266 11.1276 21.6016 10.6354 20.8047 10.2969C20.0078 9.95312 19.0912 9.78125 18.0547 9.78125C17.112 9.78125 16.25 9.95052 15.4688 10.2891C14.6875 10.6224 14.0599 11.1302 13.5859 11.8125C13.112 12.4896 12.862 13.349 12.8359 14.3906H16.0234C16.0391 13.9635 16.1432 13.6068 16.3359 13.3203C16.5287 13.0286 16.776 12.8099 17.0781 12.6641C17.3802 12.513 17.7005 12.4375 18.0391 12.4375C18.388 12.4375 18.7057 12.5104 18.9922 12.6562C19.2838 12.8021 19.5156 13.0104 19.6875 13.2812C19.8594 13.5521 19.9453 13.8672 19.9453 14.2266C19.9453 14.5651 19.8698 14.8724 19.7188 15.1484C19.5677 15.4193 19.3646 15.6667 19.1094 15.8906C18.8542 16.1146 18.5651 16.3307 18.2422 16.5391C17.8099 16.8099 17.4401 17.112 17.1328 17.4453C16.8255 17.7786 16.5912 18.2161 16.4297 18.7578C16.2734 19.2995 16.1927 20.026 16.1875 20.9375ZM16.3984 25.6562C16.7682 26.0208 17.2135 26.2031 17.7344 26.2031C18.0677 26.2031 18.375 26.1198 18.6562 25.9531C18.9375 25.7812 19.1641 25.5547 19.3359 25.2734C19.513 24.987 19.6042 24.6719 19.6094 24.3281C19.6042 23.8177 19.4141 23.3802 19.0391 23.0156C18.6641 22.651 18.2292 22.4688 17.7344 22.4688C17.2135 22.4688 16.7682 22.651 16.3984 23.0156C16.0338 23.3802 15.8542 23.8177 15.8594 24.3281C15.8542 24.8438 16.0338 25.2865 16.3984 25.6562Z" fill="white"/>
<defs>
<linearGradient id="paint0_linear_3113_36027" x1="4.5" y1="29.5" x2="30" y2="5.5" gradientUnits="userSpaceOnUse">
<stop stop-color="#00ADD8"/>
<stop offset="0.489583" stop-color="#8541B5"/>
<stop offset="0.932292" stop-color="#F17766"/>
</linearGradient>
</defs>
</svg>
