<svg viewBox="0 0 165 40" fill="none" xmlns="http://www.w3.org/2000/svg">
<rect width="164.857" height="40" fill="white"/>
<path d="M45.5 36C54.0605 36 61 29.0605 61 20.5C61 11.9395 54.0605 5 45.5 5C36.9395 5 30 11.9395 30 20.5C30 29.0605 36.9395 36 45.5 36Z" fill="#F76754"/>
<path d="M38.2667 27.2167H40.85V13.7833H38.2667V27.2167Z" fill="#002C49"/>
<path d="M47.5744 13.7833C50.4193 13.7833 52.7333 16.1044 52.7333 18.9577C52.7333 21.8026 50.4193 24.1167 47.5744 24.1167C44.7211 24.1167 42.4 21.8026 42.4 18.9577C42.4 16.1044 44.7211 13.7833 47.5744 13.7833Z" fill="white"/>
<path d="M128.642 16.6671H130.511V24.9101H128.549L125.621 19.6109V24.9101H123.74V16.6671H125.703L128.642 22.0368V16.6671ZM116.318 16.4551C119.013 16.4551 120.616 18.5277 120.616 20.7886C120.616 23.0496 119.013 25.1222 116.318 25.1222C113.612 25.1222 112.009 23.0496 112.009 20.7886C112.009 18.5277 113.612 16.4551 116.318 16.4551ZM118.699 20.7886C118.699 19.4345 117.793 18.1744 116.318 18.1744C114.832 18.1744 113.937 19.4345 113.937 20.7886C113.937 22.1428 114.832 23.4029 116.318 23.4029C117.793 23.4029 118.699 22.1428 118.699 20.7886ZM85.9345 18.3156V16.6671H91.4975V18.3156H89.6507V24.9101H87.7692V18.3156H85.9345ZM105.877 20.0702H108.954V21.566H105.877V23.3791H108.954V24.9102H103.995V16.6671H108.954V18.1982H105.877V20.0702ZM97.8394 16.6671C99.6394 16.6671 100.801 18.0451 100.801 19.6465C100.801 20.8005 100.197 21.8248 99.1863 22.3078L100.813 24.9102H98.6292L97.1885 22.6255H96.3058V24.9102H94.4245V16.6671H97.8394ZM98.8961 19.6465C98.8961 18.881 98.3849 18.2215 97.5951 18.2215H96.3058V21.0711H97.5951C98.3849 21.0711 98.8961 20.412 98.8961 19.6465ZM82.2526 23.9093H79.3605L79.0468 24.9102H77.0372L79.9411 16.6671H81.6716L84.6102 24.9102H82.5659L82.2526 23.9093ZM80.812 19.0222L79.8131 22.4138H81.7875L80.812 19.0222ZM72.4029 16.6671C74.2033 16.6671 75.3649 18.0451 75.3649 19.6465C75.3649 21.2479 74.2033 22.6255 72.4029 22.6255H70.8815V24.9102H69V16.6671H72.4029ZM73.4717 19.6465C73.4717 18.881 72.9605 18.2215 72.1707 18.2215H70.8815V21.0711H72.1707C72.9605 21.0711 73.4717 20.412 73.4717 19.6465Z" fill="#052D49"/>
</svg>
