<svg viewBox="0 0 165 40" fill="none" xmlns="http://www.w3.org/2000/svg">
<rect width="164.857" height="40" fill="white"/>
<path d="M63.9765 13.1294C63.6471 11.9059 62.6824 10.9412 61.4588 10.6118C59.2235 10 50.2824 10 50.2824 10C50.2824 10 41.3412 10 39.1059 10.5882C37.9059 10.9176 36.9176 11.9059 36.5882 13.1294C36 15.3647 36 20 36 20C36 20 36 24.6588 36.5882 26.8706C36.9176 28.0941 37.8824 29.0588 39.1059 29.3882C41.3647 30 50.2824 30 50.2824 30C50.2824 30 59.2235 30 61.4588 29.4118C62.6824 29.0824 63.6471 28.1176 63.9765 26.8941C64.5647 24.6588 64.5647 20.0235 64.5647 20.0235C64.5647 20.0235 64.5882 15.3647 63.9765 13.1294Z" fill="#FF0000"/>
<path d="M47.4353 15.7177V24.2824L54.8706 20L47.4353 15.7177Z" fill="white"/>
<path d="M77.4824 28.2118C76.9177 27.8353 76.5177 27.2471 76.2824 26.4235C76.0471 25.6235 75.9294 24.5412 75.9294 23.2235V21.4118C75.9294 20.0706 76.0706 18.9882 76.3294 18.1647C76.6118 17.3412 77.0353 16.7529 77.6 16.3765C78.1883 16 78.9412 15.8118 79.8824 15.8118C80.8 15.8118 81.553 16 82.1177 16.3765C82.6824 16.7529 83.0824 17.3647 83.3412 18.1647C83.6 18.9647 83.7412 20.0471 83.7412 21.4118V23.2235C83.7412 24.5647 83.6236 25.6235 83.3647 26.4471C83.1059 27.2471 82.7059 27.8588 82.1412 28.2353C81.5765 28.6118 80.8 28.8 79.8353 28.8C78.8471 28.7765 78.0471 28.5882 77.4824 28.2118ZM80.6589 26.2353C80.8236 25.8353 80.8942 25.1529 80.8942 24.2353V20.3294C80.8942 19.4353 80.8236 18.7765 80.6589 18.3529C80.4942 17.9294 80.2353 17.7412 79.8353 17.7412C79.4589 17.7412 79.1765 17.9529 79.0353 18.3529C78.8706 18.7765 78.8 19.4353 78.8 20.3294V24.2353C78.8 25.1529 78.8706 25.8353 79.0353 26.2353C79.1765 26.6353 79.4589 26.8471 79.8589 26.8471C80.2353 26.8471 80.4942 26.6588 80.6589 26.2353Z" fill="#282828"/>
<path d="M120.918 23.247V23.8823C120.918 24.6823 120.941 25.2941 120.988 25.6941C121.035 26.0941 121.129 26.3999 121.294 26.5646C121.435 26.7529 121.671 26.847 122 26.847C122.424 26.847 122.706 26.6823 122.871 26.3529C123.035 26.0235 123.106 25.4823 123.129 24.7058L125.553 24.847C125.577 24.9646 125.577 25.1058 125.577 25.2941C125.577 26.447 125.271 27.3176 124.635 27.8823C124 28.447 123.106 28.7294 121.953 28.7294C120.565 28.7294 119.6 28.2823 119.035 27.4117C118.471 26.5411 118.188 25.1999 118.188 23.3646V21.1764C118.188 19.2941 118.471 17.9294 119.059 17.0588C119.647 16.1882 120.635 15.7646 122.024 15.7646C122.988 15.7646 123.741 15.9529 124.259 16.3058C124.777 16.6588 125.129 17.2235 125.341 17.9529C125.553 18.7058 125.647 19.7411 125.647 21.0588V23.1999H120.918V23.247ZM121.271 17.9764C121.129 18.1646 121.035 18.447 120.988 18.847C120.941 19.247 120.918 19.8588 120.918 20.6823V21.5764H122.988V20.6823C122.988 19.8823 122.965 19.2705 122.918 18.847C122.871 18.4235 122.753 18.1411 122.612 17.9764C122.471 17.8117 122.235 17.7176 121.953 17.7176C121.624 17.6941 121.412 17.7882 121.271 17.9764Z" fill="#282828"/>
<path d="M70.6118 23.0117L67.4118 11.4117H70.2118L71.3412 16.6588C71.6236 17.9529 71.8353 19.0588 71.9765 19.9764H72.0471C72.1412 19.3176 72.353 18.2353 72.6824 16.6823L73.8589 11.4117H76.6589L73.4118 23.0117V28.5647H70.6353V23.0117H70.6118Z" fill="#282828"/>
<path d="M92.8471 16.0471V28.5882H90.6353L90.4 27.0588H90.3295C89.7412 28.2118 88.8236 28.8 87.6236 28.8C86.8 28.8 86.1883 28.5176 85.7883 27.9765C85.3883 27.4353 85.2 26.5882 85.2 25.4118V16.0471H88.0236V25.2471C88.0236 25.8118 88.0942 26.2118 88.2118 26.4471C88.3295 26.6824 88.5412 26.8 88.8236 26.8C89.0589 26.8 89.2942 26.7294 89.5295 26.5647C89.7647 26.4235 89.9295 26.2353 90.0236 26V16.0471H92.8471Z" fill="#282828"/>
<path d="M107.318 16.0471V28.5882H105.106L104.871 27.0588H104.8C104.212 28.2118 103.294 28.8 102.094 28.8C101.271 28.8 100.659 28.5176 100.259 27.9765C99.8589 27.4353 99.6706 26.5882 99.6706 25.4118V16.0471H102.494V25.2471C102.494 25.8118 102.565 26.2118 102.682 26.4471C102.8 26.6824 103.012 26.8 103.294 26.8C103.529 26.8 103.765 26.7294 104 26.5647C104.235 26.4235 104.4 26.2353 104.494 26V16.0471H107.318Z" fill="#282828"/>
<path d="M100.518 13.6941H97.7177V28.5647H94.9648V13.6941H92.1648V11.4117H100.518V13.6941Z" fill="#282828"/>
<path d="M116.659 18.0471C116.494 17.2471 116.212 16.6824 115.835 16.3294C115.459 15.9765 114.918 15.7883 114.259 15.7883C113.741 15.7883 113.247 15.9294 112.8 16.2353C112.353 16.5177 112 16.9177 111.765 17.3883H111.741V10.7765H109.012V28.5647H111.341L111.624 27.3883H111.694C111.906 27.8118 112.235 28.1412 112.682 28.4C113.129 28.6353 113.6 28.7765 114.141 28.7765C115.106 28.7765 115.788 28.3294 116.235 27.4588C116.682 26.5883 116.918 25.2 116.918 23.3412V21.3647C116.894 19.9294 116.824 18.8235 116.659 18.0471ZM114.071 23.153C114.071 24.0706 114.024 24.7765 113.953 25.2941C113.882 25.8118 113.741 26.1883 113.576 26.4C113.388 26.6118 113.153 26.7294 112.871 26.7294C112.635 26.7294 112.424 26.6824 112.235 26.5647C112.047 26.4471 111.882 26.2824 111.765 26.0706V18.9647C111.859 18.6353 112.024 18.353 112.259 18.1177C112.494 17.9059 112.753 17.7883 113.012 17.7883C113.294 17.7883 113.529 17.9059 113.671 18.1177C113.835 18.353 113.929 18.7294 114 19.2471C114.071 19.7883 114.094 20.5412 114.094 21.5059V23.153H114.071Z" fill="#282828"/>
</svg>
